<?xml version="1.0" standalone="no"?>
<!DOCTYPE svg PUBLIC "-//W3C//DTD SVG 20010904//EN"
 "http://www.w3.org/TR/2001/REC-SVG-20010904/DTD/svg10.dtd">
<svg version="1.0" xmlns="http://www.w3.org/2000/svg"
 width="34.000000pt" height="34.000000pt" viewBox="0 0 34.000000 34.000000"
 preserveAspectRatio="xMidYMid meet">

<g transform="translate(0.000000,34.000000) scale(0.100000,-0.100000)"
fill="#000000" stroke="none">
<path d="M143 283 c-51 -10 -88 -76 -74 -131 13 -47 28 -34 37 29 6 38 14 64
23 67 11 4 13 -4 7 -39 -21 -131 -21 -126 12 -134 71 -15 142 56 127 127 -9
38 -19 23 -30 -39 -8 -53 -28 -55 -48 -5 l-15 37 -7 -38 c-4 -22 -13 -37 -22
-37 -9 0 -12 7 -9 18 3 9 8 38 12 65 8 57 27 62 45 12 7 -19 16 -35 20 -35 12
0 17 75 5 86 -14 14 -54 22 -83 17z"/>
</g>
</svg>
